<svg height="511pt" viewBox="-1 1 511 511.999" width="511pt" xmlns="http://www.w3.org/2000/svg"><path d="m15.5 162h39.328125c8.285156 0 15-6.714844 15-15s-6.714844-15-15-15h-39.328125c-8.285156 0-15 6.714844-15 15s6.714844 15 15 15zm0 0"/><path d="m15.5 261.996094c8.285156 0 15-6.714844 15-15v-39.328125c0-8.285157-6.714844-15-15-15s-15 6.714843-15 15v39.328125c0 8.285156 6.714844 15 15 15zm0 0"/><path d="m15.5 361.335938c8.285156 0 15-6.714844 15-15v-39.328126c0-8.285156-6.714844-15-15-15s-15 6.714844-15 15v39.328126c0 8.285156 6.714844 15 15 15zm0 0"/><path d="m30.5 446.335938v-39.328126c0-8.285156-6.714844-15-15-15s-15 6.714844-15 15v39.328126c0 8.285156 6.714844 15 15 15s15-6.714844 15-15zm0 0"/><path d="m65.160156 482h-39.328125c-8.285156 0-15 6.714844-15 15 0 8.28125 6.714844 15 15 15h39.328125c8.285156 0 15-6.71875 15-15 0-8.285156-6.714844-15-15-15zm0 0"/><path d="m165.15625 482h-39.332031c-8.28125 0-15 6.714844-15 15 0 8.28125 6.71875 15 15 15h39.332031c8.28125 0 15-6.71875 15-15 0-8.285156-6.714844-15-15-15zm0 0"/><path d="m265.277344 482h-39.328125c-8.285157 0-15 6.714844-15 15 0 8.28125 6.714843 14.996094 15 14.996094h39.328125c8.285156 0 15-6.714844 15-14.996094 0-8.285156-6.714844-15-15-15zm0 0"/><path d="m365.152344 482h-39.332032c-8.28125 0-15 6.714844-15 15 0 8.28125 6.71875 14.996094 15 14.996094h39.332032c8.28125 0 15-6.714844 15-14.996094 0-8.285156-6.71875-15-15-15zm0 0"/><path d="m495.488281 90c8.285157 0 15-6.714844 15-15v-60c0-8.285156-6.714843-15-15-15h-60c-8.285156 0-15 6.714844-15 15v15h-260v-15c0-8.285156-6.714843-15-15-15h-60c-8.28125 0-15 6.714844-15 15v60c0 8.285156 6.71875 15 15 15h15v260h-15c-8.28125 0-15 6.714844-15 15v60c0 8.28125 6.71875 15 15 15h60c8.285157 0 15-6.71875 15-15v-15h190.011719v27.171875c0 8.285156 6.714844 15 15 15 8.28125 0 14.996094-6.714844 14.996094-15v-27.171875h39.992187v15c0 8.28125 6.714844 15 15 15h60c8.285157 0 15-6.71875 15-15v-60c0-8.285156-6.714843-15-15-15h-15v-260zm-45-60h30v30h-30zm-350 0h30v30h-30zm30 380h-30v-30h30zm350 0h-30v-30h30zm-30-60h-15c-8.285156 0-15 6.714844-15 15v15h-260v-15c0-8.285156-6.714843-15-15-15h-15v-260h15c8.285157 0 15-6.714844 15-15v-15h260v15c0 8.285156 6.714844 15 15 15h15zm0 0"/><path d="m376.488281 106h-174c-8.28125 0-15 6.714844-15 15v36c0 8.285156 6.71875 15 15 15 8.285157 0 15-6.714844 15-15v-21h57v168h-10c-8.28125 0-15 6.714844-15 15 0 8.28125 6.71875 15 15 15h50c8.285157 0 15-6.71875 15-15 0-8.285156-6.714843-15-15-15h-10v-168h57v21c0 8.285156 6.714844 15 15 15 8.285157 0 15-6.714844 15-15v-36c0-8.285156-6.714843-15-15-15zm0 0"/></svg>